<svg xmlns="http://www.w3.org/2000/svg" viewBox="0 0 937.85 937.79"><defs><style>.cls-1{fill:aqua;}.cls-2{fill:#fff;}</style></defs><g id="레이어_2" data-name="레이어 2"><g id="레이어_4" data-name="레이어 4"><path class="cls-1" d="M922.11,334.85l-326,87.35a12.5,12.5,0,0,0,6.47,24.15l183.26-49.11C824.31,566.45,722.07,737.77,553,783.06c-165,44.21-335-47.39-390.68-206l-24.21,6.48a350.1,350.1,0,0,0,677.54-66.29A347.31,347.31,0,0,0,810,390.77L928.58,359a12.5,12.5,0,1,0-6.47-24.15Z"/><path class="cls-2" d="M488.94,464.78a7.5,7.5,0,0,0,8.87,4.4l67.36-18.05a7.5,7.5,0,0,0-3.88-14.49l-67.36,18.05a7.48,7.48,0,0,0-5.49,8.16l-18.81,5-5-18.76a7.49,7.49,0,0,0,4.53-8.93l-18.05-67.35a7.5,7.5,0,1,0-14.49,3.88l18.05,67.36a7.5,7.5,0,0,0,8,5.51l5,18.81-18.8,5a7.5,7.5,0,0,0-8.85-4.36l-67.36,18.05a7.5,7.5,0,0,0,3.88,14.49l67.36-18.05a7.49,7.49,0,0,0,5.49-8.2l18.8-5,5.05,18.85a7.5,7.5,0,0,0-4.17,8.78l18.05,67.36a7.5,7.5,0,0,0,14.49-3.89l-18.05-67.35a7.5,7.5,0,0,0-8.4-5.47l-5-18.8Z"/><path class="cls-2" d="M551.54,822.08l28.52,106.45a12.5,12.5,0,0,0,24.15-6.48L575.67,815.54c-4.28,1.32-8.58,2.58-12.92,3.74C559,820.28,555.28,821.2,551.54,822.08Z"/><path class="cls-2" d="M745.16,254.07A349.55,349.55,0,0,0,391.35,127.86L359.58,9.27a12.5,12.5,0,1,0-24.15,6.47l31.76,118.53A349.58,349.58,0,0,0,127.83,547.51L9.27,579.27a12.5,12.5,0,1,0,6.47,24.15l261.18-70c32.43,97.15,132.82,154.89,233.17,134l28.5,106.35c3.74-.86,7.48-1.76,11.22-2.76,4.35-1.17,8.65-2.44,12.91-3.78L534.21,660.82c92.25-31.32,148.65-124,135.31-219.47l-24.35,6.53A177.58,177.58,0,0,1,527.73,636.62l-10.87-40.57a12.5,12.5,0,0,0-24.15,6.48l10.9,40.68A177.47,177.47,0,0,1,301.11,527l40.63-10.89a12.5,12.5,0,1,0-6.47-24.15l-40.63,10.89A177.52,177.52,0,0,1,411.88,301.06l10.9,40.68a12.5,12.5,0,1,0,24.15-6.47L436.06,294.7A177.58,177.58,0,0,1,632.25,399.58l24.35-6.53c-36.12-89.42-131.41-141.59-227-122.55L397.83,152c160.84-36.15,323.41,54.74,377.66,209.17l24.21-6.49A347,347,0,0,0,745.16,254.07ZM270.45,509.29,152,541c-37.61-165.45,59.32-332.9,221.66-382.6L405.4,276.87C308.11,308.91,250.07,409,270.45,509.29Z"/></g></g></svg>