<?xml version="1.0" encoding="UTF-8" standalone="no"?>
<svg
   xmlns:dc="http://purl.org/dc/elements/1.1/"
   xmlns:cc="http://creativecommons.org/ns#"
   xmlns:rdf="http://www.w3.org/1999/02/22-rdf-syntax-ns#"
   xmlns:svg="http://www.w3.org/2000/svg"
   xmlns="http://www.w3.org/2000/svg"
   xmlns:sodipodi="http://sodipodi.sourceforge.net/DTD/sodipodi-0.dtd"
   xmlns:inkscape="http://www.inkscape.org/namespaces/inkscape"
   version="1.0"
   width="202.50999mm"
   height="89.970001mm"
   id="svg33"
   sodipodi:docname="sniperJ.svg"
   inkscape:version="0.92.4 (5da689c313, 2019-01-14)">
  <metadata
     id="metadata37">
    <rdf:RDF>
      <cc:Work
         rdf:about="">
        <dc:format>image/svg+xml</dc:format>
        <dc:type
           rdf:resource="http://purl.org/dc/dcmitype/StillImage" />
        <dc:title></dc:title>
      </cc:Work>
    </rdf:RDF>
  </metadata>
  <sodipodi:namedview
     pagecolor="#ffffff"
     bordercolor="#666666"
     borderopacity="1"
     objecttolerance="10"
     gridtolerance="10"
     guidetolerance="10"
     inkscape:pageopacity="0"
     inkscape:pageshadow="2"
     inkscape:window-width="851"
     inkscape:window-height="485"
     id="namedview35"
     showgrid="false"
     inkscape:zoom="0.69402763"
     inkscape:cx="382.69605"
     inkscape:cy="170.02205"
     inkscape:window-x="0"
     inkscape:window-y="0"
     inkscape:window-maximized="0"
     inkscape:current-layer="svg33" />
  <defs
     id="defs3">
    <pattern
       id="EMFhbasepattern"
       patternUnits="userSpaceOnUse"
       width="6"
       height="6"
       x="0"
       y="0" />
  </defs>
  <path
     style="fill:#00ffff;fill-rule:evenodd;fill-opacity:1;stroke:none;"
     d="  M 116.27396,137.83284   L 123.91356,137.83284   L 123.91356,159.19173   L 116.27396,159.19173   L 116.27396,137.83284  z    M 0.079995845,136.7929   L 6.0396863,136.7929   L 6.0396863,160.23168   L 0.079995845,160.23168   L 0.079995845,136.7929  z    M 575.21012,100.47478   L 585.80957,100.47478   L 585.80957,117.95387   L 575.21012,117.95387   L 575.21012,100.47478  z    M 412.77856,98.634877   L 427.85778,98.634877   L 427.85778,119.79378   L 412.77856,119.79378   L 412.77856,98.634877  z    M 498.45411,95.275051   L 510.97346,95.275051   L 510.97346,102.95465   L 517.9731,102.95465   L 517.9731,115.474   L 510.97346,115.474   L 510.97346,123.1536   L 498.45411,123.1536   L 498.45411,115.474   L 492.65441,115.474   L 492.65441,102.95465   L 498.45411,102.95465   L 498.45411,95.275051  z   "
     id="path5" />
  <path
     style="fill:#00ffff;fill-rule:evenodd;fill-opacity:1;stroke:none;"
     d="  M 643.92655,232.82791   L 647.32638,234.78781   L 647.08639,235.18778   C 624.40757,268.74604 586.00956,290.7849 542.45183,290.7849   C 525.01273,290.7849 508.41359,287.26508 493.29438,280.90541   L 486.05475,277.38559   L 488.21464,273.70578   L 494.8543,277.3056   C 509.45354,283.46528 525.5727,286.9051 542.45183,286.9051   C 584.64963,286.9051 621.8877,265.50621 643.84656,232.9879   L 643.92655,232.82791   z  M 652.88609,216.34876   L 656.76589,217.38871   L 652.24612,225.66828   L 648.8863,223.70838   L 652.88609,216.34876   z  M 418.61826,187.99024   L 422.61805,187.99024   L 423.97798,195.18986   C 431.53759,224.50834 449.65665,249.54704 474.05538,266.02618   L 479.09512,268.74604   L 476.97523,272.34585   L 471.89549,269.26601   C 446.6968,252.2669 427.97777,226.42824 420.21817,196.18981   L 418.61826,187.99024   z  M 423.69799,122.67363   L 427.89778,122.67363   L 425.65789,128.31334   L 424.09797,134.31302   L 420.05818,134.31302   L 421.89809,127.1534   L 423.69799,122.67363   z  M 612.1682,59.556907   L 613.00816,60.036882   C 638.16685,77.035999 656.88588,102.87466 664.68548,133.11309   L 664.84547,134.11303   L 660.88567,134.11303   L 656.24591,119.83378   C 647.12639,96.714977 631.16722,76.996001 610.80827,63.276713   L 610.20831,62.95673   L 612.1682,59.556907   z  M 542.45183,38.478001   C 564.2107,38.478001 584.72963,43.997715 602.6087,53.71721   L 603.28867,54.157187   L 601.08878,57.996988   L 590.04935,51.997299   C 575.41011,45.837619 559.33095,42.397798 542.45183,42.397798   C 501.29396,42.397798 464.85586,62.716743 442.69701,93.875124   L 441.77705,95.435043   L 437.25729,95.435043   L 439.49717,91.635241   C 462.37598,59.476911 499.97403,38.478001 542.45183,38.478001   z "
     id="path7" />
  <path
     style="fill:#00ffff;fill-rule:evenodd;fill-opacity:1;stroke:none;"
     d="  M 613.76812,206.50927   L 728.28217,272.62584   L 725.64231,277.2256   L 593.88915,201.18955   L 613.76812,206.50927  z    M 461.73602,118.71383   L 489.49458,134.753   L 478.85513,134.753   L 454.13641,120.47374   L 461.73602,118.71383  z    M 358.54138,59.156927   L 420.01818,94.635085   L 409.33874,94.635085   L 355.86152,63.756689   L 358.54138,59.156927  z   "
     id="path9" />
  <path
     style="fill:#ffffff;fill-rule:evenodd;fill-opacity:1;stroke:none;"
     d="  M 524.01278,196.18981   L 527.05263,196.18981   L 527.05263,201.54953   L 447.93673,338.62241   L 443.29698,335.94255   L 524.01278,196.18981   z  M 567.9705,120.19376   L 570.01039,121.19371   L 573.45022,121.19371   L 565.13065,135.63296   L 558.97097,135.63296   C 561.97081,130.47322 564.97066,125.35349 567.9705,120.19376   z  M 637.40689,0.039997923   L 642.00665,2.6798608   L 587.48949,97.154954   L 581.32981,97.154954   L 637.40689,0.039997923   z "
     id="path11" />
  <path
     style="fill:#7f7f7f;fill-rule:evenodd;fill-opacity:1;stroke:none;"
     d="  M 515.25324,157.19184   L 588.68942,157.19184   L 578.88993,193.82993   L 572.73025,193.82993   L 572.73025,190.95008   L 563.13075,181.35058   L 536.49213,181.35058   L 526.89263,190.95008   L 526.89263,193.82993   L 515.25324,193.82993   L 515.25324,157.19184   z "
     id="path13" />
  <path
     style="fill:#7f7f7f;fill-rule:evenodd;fill-opacity:1;stroke:none;"
     d="  M 730.28207,157.19184   L 730.28207,159.03174   L 681.5646,185.99034   L 591.56927,162.83154   L 593.0892,157.27183   L 730.28207,157.19184   z "
     id="path15" />
  <path
     style="fill:#ffffff;fill-rule:evenodd;fill-opacity:1;stroke:none;"
     d="  M 537.65207,183.27048   L 561.69083,183.27048   L 570.45037,192.11002   L 570.45037,198.3097   L 561.69083,207.10924   L 537.65207,207.10924   L 528.85253,198.3097   L 528.85253,192.11002   L 537.65207,183.27048  z    M 539.092,186.27033   L 532.49234,192.86998   L 532.49234,197.54974   L 539.092,204.1494   L 545.73165,204.1494   L 551.73134,195.18986   L 545.77165,186.27033   L 539.092,186.27033  z    M 548.7315,186.27033   L 554.73119,195.18986   L 548.7315,204.1494   L 560.2509,204.1494   L 566.85056,197.54974   L 566.85056,192.86998   L 560.2509,186.27033   L 548.7315,186.27033  z   "
     id="path17" />
  <path
     style="fill:#7f7f7f;fill-rule:evenodd;fill-opacity:1;stroke:none;"
     d="  M 504.77378,102.23469   C 500.69399,102.23469 497.37417,105.39453 497.37417,109.27432   C 497.37417,113.15412 500.69399,116.31396 504.77378,116.31396   C 508.85357,116.31396 512.1734,113.15412 512.1734,109.27432   C 512.1734,105.39453 508.85357,102.23469 504.77378,102.23469   z  M 497.17418,100.1148   L 512.37339,100.1148   L 514.41328,102.15469   L 514.41328,116.39395   L 512.37339,118.43385   L 497.17418,118.43385   L 495.13428,116.39395   L 495.13428,102.15469   z  M 578.72994,99.394837   L 589.32939,99.394837   L 589.32939,119.15381   L 578.72994,119.15381   z  M 569.9304,99.394837   L 577.37001,99.394837   L 577.37001,119.15381   L 569.9304,119.15381   L 569.9304,116.15397   L 569.9304,116.15397   L 569.9304,119.15381   L 563.81072,116.15397   L 515.69322,116.15397   L 515.69322,102.39468   L 563.81072,102.39468   L 569.9304,99.394837   L 569.9304,102.39468   L 569.9304,102.39468   z  M 424.65794,97.674927   L 443.25698,97.674927   L 443.25698,97.714925   L 464.13589,102.39468   L 493.81435,102.39468   L 493.81435,116.15397   L 464.13589,116.15397   L 443.25698,120.87372   L 443.25698,120.87372   L 443.13698,120.87372   L 443.13698,120.87372   L 443.13698,120.87372   L 424.65794,120.87372   z  M 417.17833,97.674927   L 422.57805,97.674927   L 422.57805,120.87372   L 417.17833,120.87372   z  M 394.6195,97.674927   L 414.85845,97.674927   L 414.85845,120.87372   L 394.6195,120.87372   z  M 497.17418,92.075218   L 512.33339,92.075218   C 513.01335,92.075218 513.53333,92.635189 513.53333,93.275155   L 513.53333,97.99491   C 513.53333,98.634877 513.01335,99.15485 512.33339,99.15485   L 497.17418,99.15485   C 496.53421,99.15485 496.01424,98.634877 496.01424,97.99491   L 496.01424,93.275155   C 496.01424,92.635189 496.53421,92.075218 497.17418,92.075218   z "
     id="path19" />
  <path
     style="fill:#7f7f7f;fill-rule:evenodd;fill-opacity:1;stroke:none;"
     d="  M 230.40803,173.13101   L 314.14368,173.13101   L 314.14368,184.07044   L 230.40803,184.07044   L 230.40803,180.71061   L 147.53234,180.71061   L 147.53234,182.63051   L 139.07278,182.63051   L 139.07278,174.41094   L 147.53234,174.41094   L 147.53234,176.49083   L 230.40803,176.49083   L 230.40803,173.13101  z    M 3.9197964,136.7129   L 116.95393,136.7129   L 116.95393,160.19168   L 3.9197964,160.19168   L 3.9197964,136.7129  z    M 123.2936,136.7129   L 129.63327,136.7129   L 129.63327,140.43271   L 314.14368,140.43271   L 314.14368,156.47187   L 129.63327,156.47187   L 129.63327,160.19168   L 123.2936,160.19168   L 123.2936,136.7129  z   "
     id="path21" />
  <path
     style="fill:#ffffff;fill-rule:evenodd;fill-opacity:1;stroke:none;"
     d="  M 735.32181,133.35307   L 764.3603,133.35307   L 764.3603,185.79035   L 764.3203,185.79035   L 764.3603,185.87035   L 696.64382,224.98831   L 696.64382,225.02831   L 696.60382,225.02831   L 696.56382,225.02831   L 696.56382,225.02831   L 582.96972,194.5499   L 590.60932,165.99138   L 684.24446,191.11007   L 735.32181,161.59161   L 735.32181,153.63202   L 515.25324,153.63202   L 515.25324,136.51291   L 735.32181,136.51291   L 735.32181,133.35307   z "
     id="path23" />
  <path
     style="fill:#ffffff;fill-rule:evenodd;fill-opacity:1;stroke:none;"
     d="  M 504.77378,103.43463   C 508.2136,103.43463 510.93346,106.07449 510.93346,109.27432   C 510.93346,112.51416 508.2136,115.11402 504.77378,115.11402   C 501.37396,115.11402 498.6141,112.51416 498.6141,109.27432   C 498.6141,106.07449 501.37396,103.43463 504.77378,103.43463   z "
     id="path25" />
  <path
     style="fill:#ffffff;fill-rule:evenodd;fill-opacity:1;stroke:none;"
     d="  M 497.17418,120.07376   L 497.17418,193.66994   L 512.2134,193.66994   L 512.2134,120.07376   L 497.17418,120.07376   z "
     id="path27" />
  <path
     style="fill:#ffffff;fill-rule:evenodd;fill-opacity:1;stroke:none;"
     d="  M 442.897,136.55291   L 463.13594,136.55291   L 474.97533,156.0319   L 474.97533,136.55291   L 494.45432,136.55291   L 494.45432,185.51036   L 494.41432,185.51036   L 494.41432,193.82993   L 478.37515,191.23007   L 463.05595,165.87138   L 463.05595,188.7502   L 443.09699,185.51036   L 442.897,185.51036   L 442.897,185.51036   L 442.777,185.47037   L 442.897,185.47037   L 442.897,136.55291   z "
     id="path29" />
  <path
     style="fill:#ffffff;fill-rule:evenodd;fill-opacity:1;stroke:none;"
     d="  M 317.34352,136.7129   L 439.57717,136.7129   L 439.57717,152.67207   L 345.98203,152.67207   L 345.98203,156.23189   L 439.57717,156.23189   L 439.57717,185.67036   L 317.34352,185.67036   L 317.34352,171.3111   L 410.97865,171.3111   L 410.97865,167.71129   L 317.34352,167.71129   L 317.34352,136.7129   z "
     id="path31" />
</svg>
